# xmcd CD database file
#
# Track frame offsets:
#	150
#	25970
#	38079
#	49826
#	62992
#	75301
#	87561
#	99904
#	112161
#	123804
#	138023
#	149467
#	161924
#	176054
#	188750
#	200899
#	212642
#	224665
#	238023
#	248916
#	259726
#	271524
#
# Disc length: 3792 seconds
#
# Revision: 2
# Processed by: cddbd v1.5.2PL0 Copyright (c) Steve Scherf et al.
# Submitted via: CDex 1.51
#
DISCID=460ece16
DTITLE=Sonny Thompson - Mellow Blues - A Rhythm and Blues Father  {1947-1952}
DYEAR=2004
DGENRE=Jazz
TTITLE0=Long Gone  (Pt.1 and 2)   [1947]
TTITLE1=Blue Dreams   [1947]
TTITLE2=Just Boogie  (Deadline Boogie)   [1947]
TTITLE3=Sugar Cane   [1950]
TTITLE4=After Sundown   [1950]
TTITLE5=Palmetto   [1950]
TTITLE6=Harlem Rug Cutter   [1950]
TTITLE7=Blues For The Nightowls   [1950]
TTITLE8=Gone Again Blues   [1951]
TTITLE9=Smoke Stack Blues   [1951]
TTITLE10=Sunshine Blues   [1951]
TTITLE11=Mellow Blues  (Pt. 1)   [1951]
TTITLE12=Mellow Blues  (Pt. 2)   [1951]
TTITLE13=Single Shot   [1951]
TTITLE14=Real Real Fine   [1952]
TTITLE15=Clang ! Clang ! Clang !   [1952]
TTITLE16=Down In The Dumps   [1952]
TTITLE17=Pastry   [1952]
TTITLE18=Low Flame   [1952]
TTITLE19=Clean Sweep   [1952]
TTITLE20=Let's Call It A Day   [1951]
TTITLE21=I'll Drown In My Tears   [1951]
EXTD=YEAR: 2004
EXTT0=
EXTT1=
EXTT2=
EXTT3=
EXTT4=
EXTT5=
EXTT6=
EXTT7=
EXTT8=
EXTT9=
EXTT10=
EXTT11=
EXTT12=
EXTT13=
EXTT14=
EXTT15=
EXTT16=
EXTT17=
EXTT18=
EXTT19=
EXTT20=
EXTT21=
PLAYORDER=
